<mxfile host="65bd71144e" scale="1" border="10">
    <diagram name="MER Lanchonete FIAP" id="QjZd8R-ZHvt1By7iA-Us">
        <mxGraphModel dx="1017" dy="779" grid="0" gridSize="10" guides="1" tooltips="1" connect="1" arrows="1" fold="1" page="1" pageScale="1" pageWidth="1169" pageHeight="827" background="#ffffff" math="0" shadow="0">
            <root>
                <mxCell id="0"/>
                <mxCell id="1" parent="0"/>
                <mxCell id="2" value="Cliente" style="shape=table;startSize=30;container=1;childLayout=tableLayout;fixedRows=1;rowLines=0;fontStyle=1;align=center;resizeLast=1;html=1;whiteSpace=wrap;" parent="1" vertex="1">
                    <mxGeometry x="570" y="110" width="200" height="120" as="geometry"/>
                </mxCell>
                <mxCell id="3" value="cpf: CHAR(11) PK" style="shape=partialRectangle;html=1;align=left;spacingLeft=10;fontStyle=5;" parent="2" vertex="1">
                    <mxGeometry y="30" width="200" height="30" as="geometry"/>
                </mxCell>
                <mxCell id="4" value="nome: VARCHAR(100)" style="shape=partialRectangle;html=1;align=left;spacingLeft=10;" parent="2" vertex="1">
                    <mxGeometry y="60" width="200" height="30" as="geometry"/>
                </mxCell>
                <mxCell id="5" value="email: VARCHAR(100)" style="shape=partialRectangle;html=1;align=left;spacingLeft=10;" parent="2" vertex="1">
                    <mxGeometry y="90" width="200" height="30" as="geometry"/>
                </mxCell>
                <mxCell id="6" value="Status" style="shape=table;startSize=30;container=1;childLayout=tableLayout;fixedRows=1;rowLines=0;fontStyle=1;align=center;resizeLast=1;html=1;whiteSpace=wrap;" parent="1" vertex="1">
                    <mxGeometry x="300" y="190" width="200" height="120" as="geometry"/>
                </mxCell>
                <mxCell id="7" value="id_status: INT PK" style="shape=partialRectangle;html=1;align=left;spacingLeft=10;fontStyle=5;" parent="6" vertex="1">
                    <mxGeometry y="30" width="200" height="30" as="geometry"/>
                </mxCell>
                <mxCell id="8" value="nome: VARCHAR(50)" style="shape=partialRectangle;html=1;align=left;spacingLeft=10;" parent="6" vertex="1">
                    <mxGeometry y="60" width="200" height="30" as="geometry"/>
                </mxCell>
                <mxCell id="9" value="descricao: VARCHAR(200)" style="shape=partialRectangle;html=1;align=left;spacingLeft=10;" parent="6" vertex="1">
                    <mxGeometry y="90" width="200" height="30" as="geometry"/>
                </mxCell>
                <mxCell id="10" value="Pedido" style="shape=table;startSize=30;container=1;childLayout=tableLayout;fixedRows=1;rowLines=0;fontStyle=1;align=center;resizeLast=1;html=1;whiteSpace=wrap;" parent="1" vertex="1">
                    <mxGeometry x="570" y="320" width="200" height="180" as="geometry"/>
                </mxCell>
                <mxCell id="11" value="id_pedido: INT PK" style="shape=partialRectangle;html=1;align=left;spacingLeft=10;fontStyle=5;" parent="10" vertex="1">
                    <mxGeometry y="30" width="200" height="30" as="geometry"/>
                </mxCell>
                <mxCell id="12" value="cpf: CHAR(11) FK" style="shape=partialRectangle;html=1;align=left;spacingLeft=10;" parent="10" vertex="1">
                    <mxGeometry y="60" width="200" height="30" as="geometry"/>
                </mxCell>
                <mxCell id="13" value="id_status_atual: INT FK" style="shape=partialRectangle;html=1;align=left;spacingLeft=10;" parent="10" vertex="1">
                    <mxGeometry y="90" width="200" height="30" as="geometry"/>
                </mxCell>
                <mxCell id="14" value="valor_total: DECIMAL(10,2)" style="shape=partialRectangle;html=1;align=left;spacingLeft=10;" parent="10" vertex="1">
                    <mxGeometry y="120" width="200" height="30" as="geometry"/>
                </mxCell>
                <mxCell id="15" value="data_pedido: DATE" style="shape=partialRectangle;html=1;align=left;spacingLeft=10;" parent="10" vertex="1">
                    <mxGeometry y="150" width="200" height="30" as="geometry"/>
                </mxCell>
                <mxCell id="16" value="Preparo" style="shape=table;startSize=30;container=1;childLayout=tableLayout;fixedRows=1;rowLines=0;fontStyle=1;align=center;resizeLast=1;html=1;whiteSpace=wrap;" parent="1" vertex="1">
                    <mxGeometry x="40" y="335" width="200" height="150" as="geometry"/>
                </mxCell>
                <mxCell id="17" value="id_preparo: INT PK" style="shape=partialRectangle;html=1;align=left;spacingLeft=10;fontStyle=5;" parent="16" vertex="1">
                    <mxGeometry y="30" width="200" height="30" as="geometry"/>
                </mxCell>
                <mxCell id="18" value="id_pedido: INT&amp;nbsp;&lt;span style=&quot;color: rgb(0, 0, 0);&quot;&gt;NOT NULL&amp;nbsp;&lt;/span&gt;FK" style="shape=partialRectangle;html=1;align=left;spacingLeft=10;" parent="16" vertex="1">
                    <mxGeometry y="60" width="200" height="30" as="geometry"/>
                </mxCell>
                <mxCell id="19" value="id_status: INT FK" style="shape=partialRectangle;html=1;align=left;spacingLeft=10;" parent="16" vertex="1">
                    <mxGeometry y="90" width="200" height="30" as="geometry"/>
                </mxCell>
                <mxCell id="20" value="data_status: DATETIME" style="shape=partialRectangle;html=1;align=left;spacingLeft=10;" parent="16" vertex="1">
                    <mxGeometry y="120" width="200" height="30" as="geometry"/>
                </mxCell>
                <mxCell id="21" value="Forma_pagamento" style="shape=table;startSize=30;container=1;childLayout=tableLayout;fixedRows=1;rowLines=0;fontStyle=1;align=center;resizeLast=1;html=1;whiteSpace=wrap;" parent="1" vertex="1">
                    <mxGeometry x="915" y="200" width="200" height="120" as="geometry"/>
                </mxCell>
                <mxCell id="22" value="id_forma_pagamento: INT PK" style="shape=partialRectangle;html=1;align=left;spacingLeft=10;fontStyle=5;" parent="21" vertex="1">
                    <mxGeometry y="30" width="200" height="30" as="geometry"/>
                </mxCell>
                <mxCell id="23" value="nome: VARCHAR(50)" style="shape=partialRectangle;html=1;align=left;spacingLeft=10;" parent="21" vertex="1">
                    <mxGeometry y="60" width="200" height="30" as="geometry"/>
                </mxCell>
                <mxCell id="24" value="descricao: VARCHAR(200)" style="shape=partialRectangle;html=1;align=left;spacingLeft=10;" parent="21" vertex="1">
                    <mxGeometry y="90" width="200" height="30" as="geometry"/>
                </mxCell>
                <mxCell id="25" value="Status_Pagamento" style="shape=table;startSize=30;container=1;childLayout=tableLayout;fixedRows=1;rowLines=0;fontStyle=1;align=center;resizeLast=1;html=1;whiteSpace=wrap;" parent="1" vertex="1">
                    <mxGeometry x="915" y="645" width="200" height="90" as="geometry"/>
                </mxCell>
                <mxCell id="26" value="id_status_pagamento: INT PK" style="shape=partialRectangle;html=1;align=left;spacingLeft=10;fontStyle=5;" parent="25" vertex="1">
                    <mxGeometry y="30" width="200" height="30" as="geometry"/>
                </mxCell>
                <mxCell id="27" value="nome: VARCHAR(50)" style="shape=partialRectangle;html=1;align=left;spacingLeft=10;" parent="25" vertex="1">
                    <mxGeometry y="60" width="200" height="30" as="geometry"/>
                </mxCell>
                <mxCell id="28" value="Pagamento" style="shape=table;startSize=30;container=1;childLayout=tableLayout;fixedRows=1;rowLines=0;fontStyle=1;align=center;resizeLast=1;html=1;whiteSpace=wrap;" parent="1" vertex="1">
                    <mxGeometry x="915" y="380" width="200" height="210" as="geometry"/>
                </mxCell>
                <mxCell id="29" value="id_pagamento: INT PK" style="shape=partialRectangle;html=1;align=left;spacingLeft=10;fontStyle=5;" parent="28" vertex="1">
                    <mxGeometry y="30" width="200" height="30" as="geometry"/>
                </mxCell>
                <mxCell id="30" value="id_pedido: INT&amp;nbsp;&lt;span style=&quot;color: rgb(0, 0, 0);&quot;&gt;NOT NULL&amp;nbsp;&lt;/span&gt;FK" style="shape=partialRectangle;html=1;align=left;spacingLeft=10;" parent="28" vertex="1">
                    <mxGeometry y="60" width="200" height="30" as="geometry"/>
                </mxCell>
                <mxCell id="31" value="data_pagamento: DATETIME" style="shape=partialRectangle;html=1;align=left;spacingLeft=10;" parent="28" vertex="1">
                    <mxGeometry y="90" width="200" height="30" as="geometry"/>
                </mxCell>
                <mxCell id="32" value="id_forma_pagamento: INT FK" style="shape=partialRectangle;html=1;align=left;spacingLeft=10;" parent="28" vertex="1">
                    <mxGeometry y="120" width="200" height="30" as="geometry"/>
                </mxCell>
                <mxCell id="33" value="valor_pago: DECIMAL(10,2)" style="shape=partialRectangle;html=1;align=left;spacingLeft=10;" parent="28" vertex="1">
                    <mxGeometry y="150" width="200" height="30" as="geometry"/>
                </mxCell>
                <mxCell id="34" value="id_status_pagamento: INT FK" style="shape=partialRectangle;html=1;align=left;spacingLeft=10;" parent="28" vertex="1">
                    <mxGeometry y="180" width="200" height="30" as="geometry"/>
                </mxCell>
                <mxCell id="35" value="Produto" style="shape=table;startSize=30;container=1;childLayout=tableLayout;fixedRows=1;rowLines=0;fontStyle=1;align=center;resizeLast=1;html=1;whiteSpace=wrap;" parent="1" vertex="1">
                    <mxGeometry x="450" y="570" width="200" height="210" as="geometry"/>
                </mxCell>
                <mxCell id="36" value="id_produto: INT PK" style="shape=partialRectangle;html=1;align=left;spacingLeft=10;fontStyle=5;" parent="35" vertex="1">
                    <mxGeometry y="30" width="200" height="30" as="geometry"/>
                </mxCell>
                <mxCell id="37" value="nome: VARCHAR(100)" style="shape=partialRectangle;html=1;align=left;spacingLeft=10;" parent="35" vertex="1">
                    <mxGeometry y="60" width="200" height="30" as="geometry"/>
                </mxCell>
                <mxCell id="38" value="id_categoria: INT&amp;nbsp;&lt;span style=&quot;color: rgb(0, 0, 0);&quot;&gt;NOT NULL&amp;nbsp;&lt;/span&gt;FK" style="shape=partialRectangle;html=1;align=left;spacingLeft=10;" parent="35" vertex="1">
                    <mxGeometry y="90" width="200" height="30" as="geometry"/>
                </mxCell>
                <mxCell id="39" value="descricao: VARCHAR(200)" style="shape=partialRectangle;html=1;align=left;spacingLeft=10;" parent="35" vertex="1">
                    <mxGeometry y="120" width="200" height="30" as="geometry"/>
                </mxCell>
                <mxCell id="40" value="preco: DECIMAL(10,2)" style="shape=partialRectangle;html=1;align=left;spacingLeft=10;" parent="35" vertex="1">
                    <mxGeometry y="150" width="200" height="30" as="geometry"/>
                </mxCell>
                <mxCell id="41" value="imagens: VARCHAR(500)" style="shape=partialRectangle;html=1;align=left;spacingLeft=10;" parent="35" vertex="1">
                    <mxGeometry y="180" width="200" height="30" as="geometry"/>
                </mxCell>
                <mxCell id="42" value="Produto_Pedido" style="shape=table;startSize=30;container=1;childLayout=tableLayout;fixedRows=1;rowLines=0;fontStyle=1;align=center;resizeLast=1;html=1;whiteSpace=wrap;" parent="1" vertex="1">
                    <mxGeometry x="140" y="510" width="200" height="180" as="geometry"/>
                </mxCell>
                <mxCell id="43" value="id_produto_pedido: INT PK" style="shape=partialRectangle;html=1;align=left;spacingLeft=10;fontStyle=5;" parent="42" vertex="1">
                    <mxGeometry y="30" width="200" height="30" as="geometry"/>
                </mxCell>
                <mxCell id="44" value="id_pedido: INT&amp;nbsp;&lt;span style=&quot;color: rgb(0, 0, 0);&quot;&gt;NOT NULL&lt;/span&gt;&amp;nbsp;FK" style="shape=partialRectangle;html=1;align=left;spacingLeft=10;" parent="42" vertex="1">
                    <mxGeometry y="60" width="200" height="30" as="geometry"/>
                </mxCell>
                <mxCell id="45" value="id_produto: INT&amp;nbsp;&lt;span style=&quot;color: rgb(0, 0, 0);&quot;&gt;NOT NULL&amp;nbsp;&lt;/span&gt;FK" style="shape=partialRectangle;html=1;align=left;spacingLeft=10;" parent="42" vertex="1">
                    <mxGeometry y="90" width="200" height="30" as="geometry"/>
                </mxCell>
                <mxCell id="46" value="quantidade: INT" style="shape=partialRectangle;html=1;align=left;spacingLeft=10;" parent="42" vertex="1">
                    <mxGeometry y="120" width="200" height="30" as="geometry"/>
                </mxCell>
                <mxCell id="47" value="observacao: VARCHAR(200)" style="shape=partialRectangle;html=1;align=left;spacingLeft=10;" parent="42" vertex="1">
                    <mxGeometry y="150" width="200" height="30" as="geometry"/>
                </mxCell>
                <mxCell id="48" value="Categoria" style="shape=table;startSize=30;container=1;childLayout=tableLayout;fixedRows=1;rowLines=0;fontStyle=1;align=center;resizeLast=1;html=1;whiteSpace=wrap;" parent="1" vertex="1">
                    <mxGeometry x="150" y="750" width="200" height="90" as="geometry"/>
                </mxCell>
                <mxCell id="49" value="id_categoria: INT PK" style="shape=partialRectangle;html=1;align=left;spacingLeft=10;fontStyle=5;" parent="48" vertex="1">
                    <mxGeometry y="30" width="200" height="30" as="geometry"/>
                </mxCell>
                <mxCell id="50" value="nome: VARCHAR(50)" style="shape=partialRectangle;html=1;align=left;spacingLeft=10;" parent="48" vertex="1">
                    <mxGeometry y="60" width="200" height="30" as="geometry"/>
                </mxCell>
                <mxCell id="51" value="Ingrediente" style="shape=table;startSize=30;container=1;childLayout=tableLayout;fixedRows=1;rowLines=0;fontStyle=1;align=center;resizeLast=1;html=1;whiteSpace=wrap;" parent="1" vertex="1">
                    <mxGeometry x="900" y="830" width="250" height="240" as="geometry"/>
                </mxCell>
                <mxCell id="52" value="id_ingrediente: INT PK" style="shape=partialRectangle;html=1;align=left;spacingLeft=10;fontStyle=5;" parent="51" vertex="1">
                    <mxGeometry y="30" width="250" height="30" as="geometry"/>
                </mxCell>
                <mxCell id="53" value="nome: VARCHAR(100)" style="shape=partialRectangle;html=1;align=left;spacingLeft=10;" parent="51" vertex="1">
                    <mxGeometry y="60" width="250" height="30" as="geometry"/>
                </mxCell>
                <mxCell id="54" value="descricao: VARCHAR(200)" style="shape=partialRectangle;html=1;align=left;spacingLeft=10;" parent="51" vertex="1">
                    <mxGeometry y="90" width="250" height="30" as="geometry"/>
                </mxCell>
                <mxCell id="55" value="unidade_medida: VARCHAR(20)" style="shape=partialRectangle;html=1;align=left;spacingLeft=10;" parent="51" vertex="1">
                    <mxGeometry y="120" width="250" height="30" as="geometry"/>
                </mxCell>
                <mxCell id="56" value="preco_unitario: DECIMAL(10,2)" style="shape=partialRectangle;html=1;align=left;spacingLeft=10;" parent="51" vertex="1">
                    <mxGeometry y="150" width="250" height="30" as="geometry"/>
                </mxCell>
                <mxCell id="57" value="quantidade_em_estoque: DECIMAL(10,2)" style="shape=partialRectangle;html=1;align=left;spacingLeft=10;" parent="51" vertex="1">
                    <mxGeometry y="180" width="250" height="30" as="geometry"/>
                </mxCell>
                <mxCell id="58" value="estoque_minimo: DECIMAL(10,2)" style="shape=partialRectangle;html=1;align=left;spacingLeft=10;" parent="51" vertex="1">
                    <mxGeometry y="210" width="250" height="30" as="geometry"/>
                </mxCell>
                <mxCell id="59" value="Ingrediente_Produto" style="shape=table;startSize=30;container=1;childLayout=tableLayout;fixedRows=1;rowLines=0;fontStyle=1;align=center;resizeLast=1;html=1;whiteSpace=wrap;" parent="1" vertex="1">
                    <mxGeometry x="430" y="890" width="200" height="150" as="geometry">
                        <mxRectangle x="600" y="700" width="150" height="30" as="alternateBounds"/>
                    </mxGeometry>
                </mxCell>
                <mxCell id="60" value="id_ingrediente_produto: INT PK" style="shape=partialRectangle;html=1;align=left;spacingLeft=10;fontStyle=5;" parent="59" vertex="1">
                    <mxGeometry y="30" width="200" height="30" as="geometry"/>
                </mxCell>
                <mxCell id="61" value="id_ingrediente: INT&amp;nbsp;&lt;span style=&quot;color: rgb(0, 0, 0);&quot;&gt;NOT NULL&amp;nbsp;&lt;/span&gt;FK" style="shape=partialRectangle;html=1;align=left;spacingLeft=10;" parent="59" vertex="1">
                    <mxGeometry y="60" width="200" height="30" as="geometry"/>
                </mxCell>
                <mxCell id="62" value="id_produto: INT&amp;nbsp;&lt;span style=&quot;color: rgb(0, 0, 0);&quot;&gt;NOT NULL&amp;nbsp;&lt;/span&gt;FK" style="shape=partialRectangle;html=1;align=left;spacingLeft=10;" parent="59" vertex="1">
                    <mxGeometry y="90" width="200" height="30" as="geometry"/>
                </mxCell>
                <mxCell id="63" value="quantidade: DECIMAL(10,2)" style="shape=partialRectangle;html=1;align=left;spacingLeft=10;" parent="59" vertex="1">
                    <mxGeometry y="120" width="200" height="30" as="geometry"/>
                </mxCell>
                <mxCell id="70" value="" style="edgeStyle=entityRelationEdgeStyle;fontSize=12;html=1;endArrow=ERmandOne;startArrow=ERmandOne;rounded=0;entryX=1;entryY=0.5;entryDx=0;entryDy=0;exitX=0;exitY=0.5;exitDx=0;exitDy=0;" parent="1" source="11" target="18" edge="1">
                    <mxGeometry width="100" height="100" relative="1" as="geometry">
                        <mxPoint x="250" y="320" as="sourcePoint"/>
                        <mxPoint x="350" y="220" as="targetPoint"/>
                    </mxGeometry>
                </mxCell>
                <mxCell id="102" value="1:N" style="edgeLabel;html=1;align=center;verticalAlign=middle;resizable=0;points=[];" parent="70" vertex="1" connectable="0">
                    <mxGeometry x="0.1115" relative="1" as="geometry">
                        <mxPoint as="offset"/>
                    </mxGeometry>
                </mxCell>
                <mxCell id="71" value="" style="edgeStyle=entityRelationEdgeStyle;fontSize=12;html=1;endArrow=ERmandOne;startArrow=ERmandOne;rounded=0;" parent="1" source="3" target="12" edge="1">
                    <mxGeometry width="100" height="100" relative="1" as="geometry">
                        <mxPoint x="990" y="110" as="sourcePoint"/>
                        <mxPoint x="790" y="320" as="targetPoint"/>
                    </mxGeometry>
                </mxCell>
                <mxCell id="93" value="1:N" style="edgeLabel;html=1;align=center;verticalAlign=middle;resizable=0;points=[];" parent="71" vertex="1" connectable="0">
                    <mxGeometry x="-0.2067" relative="1" as="geometry">
                        <mxPoint y="16" as="offset"/>
                    </mxGeometry>
                </mxCell>
                <mxCell id="72" value="" style="edgeStyle=entityRelationEdgeStyle;fontSize=12;html=1;endArrow=ERmandOne;startArrow=ERmandOne;rounded=0;entryX=0;entryY=0.5;entryDx=0;entryDy=0;exitX=1;exitY=0.5;exitDx=0;exitDy=0;" parent="1" source="7" target="13" edge="1">
                    <mxGeometry width="100" height="100" relative="1" as="geometry">
                        <mxPoint x="270" y="340" as="sourcePoint"/>
                        <mxPoint x="320" y="305" as="targetPoint"/>
                    </mxGeometry>
                </mxCell>
                <mxCell id="106" value="1:1" style="edgeLabel;html=1;align=center;verticalAlign=middle;resizable=0;points=[];" parent="72" vertex="1" connectable="0">
                    <mxGeometry x="-0.1536" y="3" relative="1" as="geometry">
                        <mxPoint as="offset"/>
                    </mxGeometry>
                </mxCell>
                <mxCell id="73" value="" style="edgeStyle=entityRelationEdgeStyle;fontSize=12;html=1;endArrow=ERmandOne;startArrow=ERmandOne;rounded=0;entryX=1;entryY=0.5;entryDx=0;entryDy=0;" parent="1" source="7" target="19" edge="1">
                    <mxGeometry width="100" height="100" relative="1" as="geometry">
                        <mxPoint x="270" y="340" as="sourcePoint"/>
                        <mxPoint x="320" y="305" as="targetPoint"/>
                    </mxGeometry>
                </mxCell>
                <mxCell id="105" value="1:1" style="edgeLabel;html=1;align=center;verticalAlign=middle;resizable=0;points=[];" parent="73" vertex="1" connectable="0">
                    <mxGeometry x="-0.1723" y="1" relative="1" as="geometry">
                        <mxPoint as="offset"/>
                    </mxGeometry>
                </mxCell>
                <mxCell id="74" value="" style="edgeStyle=entityRelationEdgeStyle;fontSize=12;html=1;endArrow=ERmandOne;startArrow=ERmandOne;rounded=0;entryX=0;entryY=0.5;entryDx=0;entryDy=0;exitX=1;exitY=0.5;exitDx=0;exitDy=0;" parent="1" source="11" target="30" edge="1">
                    <mxGeometry width="100" height="100" relative="1" as="geometry">
                        <mxPoint x="270" y="340" as="sourcePoint"/>
                        <mxPoint x="320" y="305" as="targetPoint"/>
                    </mxGeometry>
                </mxCell>
                <mxCell id="94" value="1:1" style="edgeLabel;html=1;align=center;verticalAlign=middle;resizable=0;points=[];" parent="74" vertex="1" connectable="0">
                    <mxGeometry x="-0.055" relative="1" as="geometry">
                        <mxPoint as="offset"/>
                    </mxGeometry>
                </mxCell>
                <mxCell id="75" value="" style="edgeStyle=entityRelationEdgeStyle;fontSize=12;html=1;endArrow=ERmandOne;startArrow=ERmandOne;rounded=0;" parent="1" source="22" target="32" edge="1">
                    <mxGeometry width="100" height="100" relative="1" as="geometry">
                        <mxPoint x="840" y="245" as="sourcePoint"/>
                        <mxPoint x="840" y="515" as="targetPoint"/>
                        <Array as="points">
                            <mxPoint x="785" y="400"/>
                            <mxPoint x="775" y="330"/>
                            <mxPoint x="715" y="430"/>
                        </Array>
                    </mxGeometry>
                </mxCell>
                <mxCell id="95" value="1:1" style="edgeLabel;html=1;align=center;verticalAlign=middle;resizable=0;points=[];" parent="75" vertex="1" connectable="0">
                    <mxGeometry x="-0.1051" y="-3" relative="1" as="geometry">
                        <mxPoint as="offset"/>
                    </mxGeometry>
                </mxCell>
                <mxCell id="76" value="" style="edgeStyle=entityRelationEdgeStyle;fontSize=12;html=1;endArrow=ERmandOne;startArrow=ERmandOne;rounded=0;" parent="1" source="26" target="34" edge="1">
                    <mxGeometry width="100" height="100" relative="1" as="geometry">
                        <mxPoint x="900" y="695" as="sourcePoint"/>
                        <mxPoint x="900" y="570" as="targetPoint"/>
                        <Array as="points">
                            <mxPoint x="840" y="625"/>
                        </Array>
                    </mxGeometry>
                </mxCell>
                <mxCell id="96" value="1:1" style="edgeLabel;html=1;align=center;verticalAlign=middle;resizable=0;points=[];" parent="76" vertex="1" connectable="0">
                    <mxGeometry x="-0.04" y="-1" relative="1" as="geometry">
                        <mxPoint as="offset"/>
                    </mxGeometry>
                </mxCell>
                <mxCell id="77" value="" style="edgeStyle=entityRelationEdgeStyle;fontSize=12;html=1;endArrow=ERmandOne;startArrow=ERmandOne;rounded=0;entryX=1;entryY=0.5;entryDx=0;entryDy=0;" parent="1" source="11" target="44" edge="1">
                    <mxGeometry width="100" height="100" relative="1" as="geometry">
                        <mxPoint x="270" y="340" as="sourcePoint"/>
                        <mxPoint x="320" y="305" as="targetPoint"/>
                    </mxGeometry>
                </mxCell>
                <mxCell id="101" value="1:N" style="edgeLabel;html=1;align=center;verticalAlign=middle;resizable=0;points=[];" parent="77" vertex="1" connectable="0">
                    <mxGeometry x="0.0598" y="-3" relative="1" as="geometry">
                        <mxPoint as="offset"/>
                    </mxGeometry>
                </mxCell>
                <mxCell id="78" value="" style="edgeStyle=entityRelationEdgeStyle;fontSize=12;html=1;endArrow=ERmandOne;startArrow=ERmandOne;rounded=0;exitX=0;exitY=0.75;exitDx=0;exitDy=0;" parent="1" source="36" target="45" edge="1">
                    <mxGeometry width="100" height="100" relative="1" as="geometry">
                        <mxPoint x="450" y="640" as="sourcePoint"/>
                        <mxPoint x="340" y="610" as="targetPoint"/>
                    </mxGeometry>
                </mxCell>
                <mxCell id="100" value="1:N" style="edgeLabel;html=1;align=center;verticalAlign=middle;resizable=0;points=[];" parent="78" vertex="1" connectable="0">
                    <mxGeometry x="0.1511" relative="1" as="geometry">
                        <mxPoint y="1" as="offset"/>
                    </mxGeometry>
                </mxCell>
                <mxCell id="79" value="" style="edgeStyle=entityRelationEdgeStyle;fontSize=12;html=1;endArrow=ERmandOne;startArrow=ERmandOne;rounded=0;entryX=0;entryY=0.5;entryDx=0;entryDy=0;exitX=1;exitY=0.5;exitDx=0;exitDy=0;" parent="1" source="49" target="38" edge="1">
                    <mxGeometry width="100" height="100" relative="1" as="geometry">
                        <mxPoint x="270" y="640" as="sourcePoint"/>
                        <mxPoint x="320" y="605" as="targetPoint"/>
                    </mxGeometry>
                </mxCell>
                <mxCell id="99" value="1:1" style="edgeLabel;html=1;align=center;verticalAlign=middle;resizable=0;points=[];" parent="79" vertex="1" connectable="0">
                    <mxGeometry x="0.0667" y="7" relative="1" as="geometry">
                        <mxPoint as="offset"/>
                    </mxGeometry>
                </mxCell>
                <mxCell id="80" value="" style="edgeStyle=entityRelationEdgeStyle;fontSize=12;html=1;endArrow=ERmandOne;startArrow=ERmandOne;rounded=0;entryX=1;entryY=0.5;entryDx=0;entryDy=0;" parent="1" source="36" target="62" edge="1">
                    <mxGeometry width="100" height="100" relative="1" as="geometry">
                        <mxPoint x="700" y="615" as="sourcePoint"/>
                        <mxPoint x="720" y="920" as="targetPoint"/>
                        <Array as="points">
                            <mxPoint x="910" y="840"/>
                            <mxPoint x="850" y="770"/>
                        </Array>
                    </mxGeometry>
                </mxCell>
                <mxCell id="98" value="1:N" style="edgeLabel;html=1;align=center;verticalAlign=middle;resizable=0;points=[];" parent="80" vertex="1" connectable="0">
                    <mxGeometry x="-0.1058" y="3" relative="1" as="geometry">
                        <mxPoint as="offset"/>
                    </mxGeometry>
                </mxCell>
                <mxCell id="81" value="" style="edgeStyle=entityRelationEdgeStyle;fontSize=12;html=1;endArrow=ERmandOne;startArrow=ERmandOne;rounded=0;entryX=1;entryY=0.5;entryDx=0;entryDy=0;" parent="1" source="52" target="61" edge="1">
                    <mxGeometry width="100" height="100" relative="1" as="geometry">
                        <mxPoint x="840" y="860" as="sourcePoint"/>
                        <mxPoint x="850" y="930" as="targetPoint"/>
                    </mxGeometry>
                </mxCell>
                <mxCell id="97" value="1:N" style="edgeLabel;html=1;align=center;verticalAlign=middle;resizable=0;points=[];" parent="81" vertex="1" connectable="0">
                    <mxGeometry x="0.2406" y="-1" relative="1" as="geometry">
                        <mxPoint as="offset"/>
                    </mxGeometry>
                </mxCell>
                <mxCell id="88" value="Legenda:" style="text;html=1;strokeColor=none;fillColor=none;align=left;verticalAlign=middle;whiteSpace=wrap;rounded=0;fontStyle=1;" parent="1" vertex="1">
                    <mxGeometry x="940" y="10" width="100" height="20" as="geometry"/>
                </mxCell>
                <mxCell id="89" value="PK - Chave Primária" style="text;html=1;strokeColor=none;fillColor=none;align=left;verticalAlign=middle;whiteSpace=wrap;rounded=0;" parent="1" vertex="1">
                    <mxGeometry x="940" y="30" width="150" height="20" as="geometry"/>
                </mxCell>
                <mxCell id="90" value="FK - Chave Estrangeira" style="text;html=1;strokeColor=none;fillColor=none;align=left;verticalAlign=middle;whiteSpace=wrap;rounded=0;" parent="1" vertex="1">
                    <mxGeometry x="940" y="50" width="150" height="20" as="geometry"/>
                </mxCell>
                <mxCell id="91" value="1:N - Relacionamento Um para Muitos" style="text;html=1;strokeColor=none;fillColor=none;align=left;verticalAlign=middle;whiteSpace=wrap;rounded=0;" parent="1" vertex="1">
                    <mxGeometry x="940" y="70" width="220" height="20" as="geometry"/>
                </mxCell>
                <mxCell id="92" value="Lanchonete FIAP - Modelo de entidade relacional" style="text;html=1;align=center;verticalAlign=middle;whiteSpace=wrap;rounded=0;strokeWidth=1;fontSize=21;" parent="1" vertex="1">
                    <mxGeometry x="280.06" y="30" width="489.94" height="30" as="geometry"/>
                </mxCell>
            </root>
        </mxGraphModel>
    </diagram>
</mxfile>